<?xml version="1.0" encoding="utf-8"?>
<!-- Generator: Adobe Illustrator 26.5.0, SVG Export Plug-In . SVG Version: 6.00 Build 0)  -->
<svg version="1.1" id="Layer_1" xmlns="http://www.w3.org/2000/svg" xmlns:xlink="http://www.w3.org/1999/xlink" x="0px" y="0px"
	 viewBox="0 0 656 100" style="enable-background:new 0 0 656 100;" xml:space="preserve">
<style type="text/css">
	.st0{fill:#FFFFFF;}
</style>
<g id="Layer_1_00000038383716245438844970000006168343850034085292_">
	<g>
		<g id="svg_1">
			<polygon id="svg_2" class="st0" points="50.6,87.7 11.8,87.7 11.8,33.1 23,33.1 23,76.6 50.6,76.6 			"/>
			<path id="svg_3" class="st0" d="M84.9,68.2l-4.1-8.9l-4.2,8.9C76.6,68.2,84.9,68.2,84.9,68.2z M106.5,87.8H94.1l-4-8.4H71.3
				l-4,8.4H55L80.8,33L106.5,87.8z"/>
			<polygon id="svg_4" class="st0" points="221.8,87.7 183.2,87.7 183.2,33.2 221.8,33.2 221.8,44.2 194.3,44.2 194.3,54.9 
				208,54.9 208,66 194.3,66 194.3,76.6 221.8,76.6 			"/>
			<path id="svg_5" class="st0" d="M254.3,51.7c0-0.7-0.1-1.4-0.3-2.1c-0.2-0.7-0.6-1.4-1-2.1c-0.5-0.7-1-1.3-1.7-1.8
				s-1.5-0.9-2.4-1.1c-0.3-0.1-0.6-0.2-1-0.2s-0.6-0.1-0.6-0.1h-8.2v15h8.2c0.1,0,0.3,0,0.7-0.1s0.7-0.1,0.9-0.2
				c1.9-0.5,3.3-1.5,4.2-3C253.9,54.5,254.3,53,254.3,51.7 M265.3,51.7c0,2.2-0.3,4.3-1,6.2s-1.7,3.7-2.9,5.3
				c-1.2,1.6-2.7,2.9-4.3,4c-1.6,1.1-3.4,1.9-5.3,2.4c-0.4,0.1-1.1,0.2-1.9,0.4c-0.8,0.2-1.6,0.3-2.1,0.3h-8.9v17.5h-11.2V33.1h19.9
				c0.3,0,0.8,0,1.3,0.1s1,0.2,1.5,0.3s1,0.2,1.4,0.4c0.4,0.1,0.8,0.2,1,0.3c1.4,0.5,2.8,1.2,4,1.9c1.2,0.7,2.5,1.8,3.8,3.3
				c0.9,1,1.7,2.1,2.4,3.4c0.7,1.3,1.2,2.5,1.6,3.7c0.2,0.8,0.4,1.7,0.6,2.6C265.3,49.9,265.3,50.8,265.3,51.7"/>
			<path id="svg_6" class="st0" d="M316.9,66.2c0,0.1,0,0.4-0.1,0.8c0,0.4-0.1,0.8-0.1,1.1c-0.2,1.7-0.7,3.4-1.3,4.9
				c-0.6,1.6-1.4,3.1-2.4,4.7c-0.9,1.4-2.1,2.8-3.6,4.1c-1.5,1.3-2.9,2.3-4.3,3c-0.4,0.2-0.8,0.4-1.2,0.6c-0.4,0.2-0.8,0.4-1.3,0.6
				c-1.3,0.5-2.7,0.9-4.2,1.2c-1.5,0.3-2.9,0.4-4.4,0.4c-0.7,0-1.6,0-2.6-0.1s-1.8-0.2-2.6-0.4c-1.6-0.4-3.3-1-5-1.8s-3.4-1.9-5-3.4
				c-1.3-1.2-2.5-2.5-3.5-3.9s-1.8-2.8-2.3-4.2c-0.2-0.6-0.5-1.4-0.8-2.4c-0.1-0.2-0.2-0.5-0.3-0.9c-0.1-0.3-0.2-0.6-0.2-0.8
				c0-0.3-0.1-0.6-0.2-1s-0.1-0.8-0.2-1.1c0-0.4-0.1-0.7-0.1-0.9c0-0.2,0-0.4,0-0.4V33.2h11.2V66c0,0.1,0,0.2,0,0.2
				c0,0.1,0,0.1,0,0.2c0,0.4,0.1,0.8,0.3,1.3c0.1,0.5,0.3,0.9,0.4,1.3c1.2,2.8,2.8,4.7,4.8,5.9c2,1.2,4,1.7,6.1,1.7
				c1.1,0,2.2-0.2,3.3-0.5c1.1-0.3,2.2-0.8,3.3-1.6c1-0.7,2-1.6,2.8-2.7s1.4-2.4,1.9-3.8c0.1-0.2,0.2-0.6,0.3-1.2
				c0.1-0.5,0.2-0.9,0.2-1V33.2h11.1L316.9,66.2L316.9,66.2z"/>
			<path id="svg_7" class="st0" d="M356.1,71.5c0-0.3,0-0.6-0.1-1s-0.2-0.8-0.4-1.2c-0.2-0.4-0.4-0.8-0.7-1.1
				c-0.3-0.3-0.6-0.6-1-0.8c-0.1-0.1-0.2-0.2-0.4-0.2c-0.1-0.1-0.3-0.1-0.4-0.1c-0.2-0.1-0.6-0.2-0.9-0.3c-0.4-0.1-0.6-0.2-0.6-0.2
				h-17.5v10.2h17.5c0.1,0,0.3,0,0.6-0.1c0.3-0.1,0.6-0.2,0.8-0.2c1-0.3,1.8-1,2.4-2C355.8,73.2,356.1,72.3,356.1,71.5 M356.1,49.3
				c0-0.3-0.1-0.8-0.2-1.2c-0.1-0.5-0.3-0.9-0.6-1.4c-0.2-0.5-0.6-0.9-1-1.3c-0.4-0.4-0.9-0.7-1.5-0.8c-0.2,0-0.4-0.1-0.7-0.2
				c-0.2-0.1-0.4-0.1-0.5-0.1h-17.7v10.3h17.5c0.1,0,0.3-0.1,0.7-0.2c0.3-0.1,0.6-0.2,0.9-0.3c0.1,0,0.3-0.1,0.4-0.2
				c0.1-0.1,0.3-0.2,0.4-0.3c0.3-0.2,0.7-0.5,0.9-0.8c0.3-0.3,0.5-0.7,0.7-1.1c0.2-0.4,0.3-0.8,0.4-1.2
				C356,49.9,356.1,49.6,356.1,49.3 M367.2,71.5c0,1.5-0.2,3-0.7,4.7c-0.5,1.6-1.2,3.2-2.2,4.6c-1,1.5-2.2,2.8-3.8,3.9
				c-1.5,1.2-3.3,2-5.4,2.5c-0.4,0.1-0.9,0.2-1.6,0.3c-0.7,0.1-1,0.2-1.1,0.2h-29.6V33.1h30c0.2,0,0.6,0,1,0.1s0.9,0.2,1.3,0.4
				s0.8,0.3,1.2,0.4c0.3,0.1,0.5,0.2,0.6,0.2c0.2,0.1,0.6,0.2,1,0.4s0.8,0.4,1.2,0.6c1.1,0.6,2.2,1.3,3.1,2.2s1.7,1.8,2.4,2.8
				c0.7,1,1.2,2,1.6,3.1s0.7,2.1,0.8,3c0.1,0.4,0.2,1,0.2,1.8c0,0.7,0.1,1.2,0.1,1.3c0,1.7-0.3,3.6-1,5.6s-1.8,3.8-3.3,5.5
				c0.1,0.1,0.2,0.2,0.3,0.4c0.1,0.1,0.2,0.3,0.3,0.4c1.3,1.4,2.2,3,2.8,5C366.9,68.1,367.2,69.9,367.2,71.5"/>
			<polygon id="svg_8" class="st0" points="411.7,87.7 373.1,87.7 373.1,33.2 384.2,33.2 384.2,76.6 411.7,76.6 			"/>
			<rect id="svg_9" x="417.6" y="33.2" class="st0" width="11.2" height="54.6"/>
			<path id="svg_10" class="st0" d="M469.5,87.7h-9.6c-0.1,0-0.3,0-0.7-0.1c-0.3,0-0.6-0.1-0.9-0.1c-0.9-0.1-1.7-0.3-2.6-0.4
				c-0.8-0.1-1.8-0.4-2.7-0.8c-3.3-1.2-6.1-2.8-8.4-4.8c-2.3-1.9-4.2-4.1-5.7-6.4s-2.6-4.7-3.2-7.2c-0.7-2.5-1-5-1-7.4
				c0-0.5,0-1.4,0.1-2.6c0.1-1.3,0.3-2.5,0.5-3.6c0.3-1.4,0.9-2.9,1.6-4.5s1.6-3.2,2.7-4.8s2.3-3,3.8-4.4c1.4-1.4,3-2.6,4.8-3.7
				c2.5-1.5,4.9-2.4,7.2-2.9c0.1,0,0.3,0,0.7-0.1c0.4-0.1,0.8-0.2,1.3-0.3s0.9-0.2,1.4-0.3s0.8-0.1,1.1-0.1h9.5v11.1h-9
				c-0.1,0-0.4,0.1-0.9,0.2c-0.5,0.1-0.9,0.2-1.2,0.3c-0.9,0.1-1.9,0.4-2.9,0.9c-1.1,0.5-2.1,1.2-3.1,2s-2,1.7-2.8,2.7
				c-0.9,1-1.5,2-2,3c-0.1,0.2-0.2,0.5-0.4,0.9c-0.2,0.3-0.3,0.6-0.4,0.9c-0.4,1.1-0.6,2.1-0.7,2.8s-0.1,1.6-0.1,2.5
				c0,1.3,0.2,2.7,0.5,4.2c0.3,1.5,0.9,2.8,1.7,4.2c0.8,1.3,1.8,2.6,3.1,3.7c1.3,1.2,2.8,2.1,4.6,2.9c0.2,0.1,0.5,0.2,1,0.4
				c0.4,0.1,0.9,0.3,1.4,0.4s0.9,0.2,1.4,0.3c0.4,0.1,0.8,0.1,1.1,0.1h8.9L469.5,87.7L469.5,87.7L469.5,87.7L469.5,87.7z"/>
			<path id="svg_11" class="st0" d="M503.9,68.2l-4.1-8.9l-4.2,8.9H503.9L503.9,68.2z M525.4,87.8H513l-4-8.4h-18.8l-4,8.4H474
				l25.7-54.7L525.4,87.8z"/>
			<path id="svg_12" class="st0" d="M175.5,79.4c-1.9-1.4-5.1-5.7-9.6-12.7c-5.8-9.1-10-14.5-12.8-16.2c10.3-3.3,15.4-9.5,15.4-18.6
				c0-3.4-0.9-6.6-2.6-9.6c-1.7-3-4.1-5.3-7.2-7c-3-1.7-6.1-2.8-9.3-3.2c-3.1-0.4-8.1-0.6-14.9-0.6h-6.9h-1.2c1.3,1.4,2.9,2.8,5,4
				c8.3,4.8,14,4.8,18.9,7.7c4.8,2.9,7.1,7,6.5,11.7s-5.5,10.9-11.6,10.9c0,0,3.3-3.6,1.3-7.5c-1.9-3.8-5.5-4.5-9.2-6.7
				s-7.2-4.3-9.2-8.4c0,0-1.8,7.7,0.7,13.2c2.9,6.4,7,9.4,7,9.4s-10.4,0.4-16.6-8.1c-6.3-8.6-6-18.6-6-18.6s3.9,4,7,4
				c0,0-1.9-3.1-1.9-9.5c0-0.7,0.1-1.4,0.2-2h-11V88h19.9V73.6c0-0.4,0-0.9,0-1.3V54.1c4.2,0,7,0.3,8.2,0.7c1.3,0.4,2.5,1.4,3.7,3
				c1.2,1.5,3.3,5,6.3,10.3c5.9,10.6,9.9,17.1,12.1,19.7h23.8v-6.2C179.5,81.6,177.4,80.8,175.5,79.4"/>
			<path id="svg_13" class="st0" d="M537,81.1c-0.9,0.7-1.3,1.7-1.3,2.8s0.4,2.1,1.3,2.8c0.7,0.7,1.6,1,2.5,1s1.8-0.4,2.7-1.1
				c0.8-0.7,1.3-1.7,1.3-2.8c0-1.1-0.5-2.1-1.4-2.9C540.6,79.7,538.5,79.7,537,81.1"/>
			<path id="svg_14" class="st0" d="M567,54.8c-4,0-7.2,1.6-9.2,4.6v-3.8h-8.4v32.2h8.8V70.3c0-1.7,0.5-7.4,6.7-7.4
				c4.6,0,5.2,4.4,5.2,8.7v16.3h8.8V67.6C578.9,59.6,574.4,54.8,567,54.8"/>
			<path id="svg_15" class="st0" d="M602.6,54.8c-10.1,0-17.5,7.1-17.5,16.9s7.3,16.9,17.5,16.9c5.6,0,10.1-2.2,13.6-6.4l0.3-0.4
				l-6.4-4.8l-0.3,0.4c-2.2,2.8-4.8,4-8,4c-4.1,0-7.1-2.6-7.8-6.4h23.7v-2.6C617.7,61.5,611.9,54.8,602.6,54.8 M601.5,61.7
				c4.4,0,7.1,2.4,7.4,6.4H594C594.7,64,597.4,61.7,601.5,61.7"/>
			<path id="svg_16" class="st0" d="M644.2,63.2v-7.6h-8.6v-9h-8.8v9h-6.4v7.6h6.4V77c0,7.1,1.8,11.6,10.7,11.6c2,0,4.7-0.3,6.4-1.1
				l0.3-0.1v-7.9l-0.8,0.6c-0.8,0.6-2.6,0.9-3.9,0.9c-2.8,0-3.9-1.3-3.9-4.6V63.2H644.2L644.2,63.2z"/>
		</g>
	</g>
</g>
</svg>
