<svg width="24" height="24" xmlns="http://www.w3.org/2000/svg" class="jam jam-world" preserveAspectRatio="xMinYMin">

 <g>
  <title>Layer 1</title>
  <path fill="white" stroke="null" id="svg_1" d="m2.6907,9.55844a9.57517,9.57517 0 0 0 -0.30109,2.38961c0,0.82442 0.10514,1.62493 0.30109,2.38961l3.4028,0a23.69298,23.69298 0 0 1 0,-4.77922l-3.4028,0zm0.97735,-2.38961l2.80301,0c0.31782,-1.45408 0.77662,-2.75642 1.33938,-3.8401a9.60026,9.60026 0 0 0 -4.14239,3.8401zm17.53735,2.38961l-3.4028,0a23.69298,23.69298 0 0 1 0,4.77922l3.4028,0c0.19595,-0.76468 0.30109,-1.56519 0.30109,-2.38961s-0.10514,-1.62493 -0.30109,-2.38961zm-0.97735,-2.38961a9.60026,9.60026 0 0 0 -4.14239,-3.8401c0.56395,1.08369 1.02156,2.38603 1.33938,3.8401l2.80301,0zm-11.7306,2.38961a21.22332,21.22332 0 0 0 -0.13382,2.38961c0,0.81844 0.0454,1.61896 0.13382,2.38961l6.90119,0a21.22332,21.22332 0 0 0 0,-4.77922l-6.90119,0zm0.42774,-2.38961l6.04571,0a12.85371,12.85371 0 0 0 -0.93553,-2.60109c-0.75034,-1.49948 -1.55325,-2.17813 -2.08732,-2.17813c-0.53527,0 -1.33699,0.67865 -2.08732,2.17813c-0.37636,0.75512 -0.69299,1.6333 -0.93553,2.60109zm-5.25714,9.55844a9.60026,9.60026 0 0 0 4.14239,3.8401c-0.56395,-1.08369 -1.02156,-2.38603 -1.33938,-3.8401l-2.80301,0zm16.56,0l-2.80301,0c-0.31782,1.45408 -0.77662,2.75642 -1.33938,3.8401a9.60026,9.60026 0 0 0 4.14239,-3.8401zm-11.30286,0c0.24255,0.96779 0.55917,1.84597 0.93553,2.60109c0.75034,1.49948 1.55325,2.17813 2.08732,2.17813c0.53527,0 1.33699,-0.67865 2.08732,-2.17813c0.37636,-0.75512 0.69299,-1.6333 0.93553,-2.60109l-6.04571,0zm3.02286,7.16883c-6.59891,0 -11.94805,-5.34914 -11.94805,-11.94805s5.34914,-11.94805 11.94805,-11.94805s11.94805,5.34914 11.94805,11.94805s-5.34914,11.94805 -11.94805,11.94805z"/>
 </g>
</svg>